<?xml version="1.0" encoding="UTF-8" standalone="no"?>
<!DOCTYPE svg PUBLIC "-//W3C//DTD SVG 1.1//EN"
 "http://www.w3.org/Graphics/SVG/1.1/DTD/svg11.dtd">
<!-- Generated by graphviz version 2.38.0 (20140413.2041)
 -->
<!-- Title: G Pages: 1 -->
<svg width="622pt" height="506pt"
 viewBox="0.00 0.00 621.99 506.07" xmlns="http://www.w3.org/2000/svg" xmlns:xlink="http://www.w3.org/1999/xlink">
<g id="graph0" class="graph" transform="scale(1 1) rotate(0) translate(4 502.069)">
<title>G</title>
<polygon fill="white" stroke="none" points="-4,4 -4,-502.069 617.992,-502.069 617.992,4 -4,4"/>
<!-- Tomasz Janiszewski -->
<g id="node1" class="node"><title>Tomasz Janiszewski</title>
<polygon fill="none" stroke="black" points="234.132,-0.5 234.132,-46.5 460.132,-46.5 460.132,-0.5 234.132,-0.5"/>
<text text-anchor="middle" x="301.132" y="-19.8" font-family="Times,serif" font-size="14.00">Tomasz Janiszewski</text>
<polyline fill="none" stroke="black" points="368.132,-0.5 368.132,-46.5 "/>
<text text-anchor="middle" x="391.632" y="-31.3" font-family="Times,serif" font-size="14.00">ADD</text>
<polyline fill="none" stroke="black" points="368.132,-23.5 415.132,-23.5 "/>
<text text-anchor="middle" x="391.632" y="-8.3" font-family="Times,serif" font-size="14.00">5504</text>
<polyline fill="none" stroke="black" points="415.132,-0.5 415.132,-46.5 "/>
<text text-anchor="middle" x="437.632" y="-31.3" font-family="Times,serif" font-size="14.00">DEL</text>
<polyline fill="none" stroke="black" points="415.132,-23.5 460.132,-23.5 "/>
<text text-anchor="middle" x="437.632" y="-8.3" font-family="Times,serif" font-size="14.00">5352</text>
</g>
<!-- Jakub Dutkowski -->
<g id="node2" class="node"><title>Jakub Dutkowski</title>
<polygon fill="none" stroke="black" points="407.992,-226.034 407.992,-272.034 613.992,-272.034 613.992,-226.034 407.992,-226.034"/>
<text text-anchor="middle" x="465.492" y="-245.334" font-family="Times,serif" font-size="14.00">Jakub Dutkowski</text>
<polyline fill="none" stroke="black" points="522.992,-226.034 522.992,-272.034 "/>
<text text-anchor="middle" x="546.492" y="-256.834" font-family="Times,serif" font-size="14.00">ADD</text>
<polyline fill="none" stroke="black" points="522.992,-249.034 569.992,-249.034 "/>
<text text-anchor="middle" x="546.492" y="-233.834" font-family="Times,serif" font-size="14.00">411</text>
<polyline fill="none" stroke="black" points="569.992,-226.034 569.992,-272.034 "/>
<text text-anchor="middle" x="591.992" y="-256.834" font-family="Times,serif" font-size="14.00">DEL</text>
<polyline fill="none" stroke="black" points="569.992,-249.034 613.992,-249.034 "/>
<text text-anchor="middle" x="591.992" y="-233.834" font-family="Times,serif" font-size="14.00">2137</text>
</g>
<!-- Tomasz Janiszewski&#45;&#45;Jakub Dutkowski -->
<g id="edge2" class="edge"><title>Tomasz Janiszewski&#45;&#45;Jakub Dutkowski</title>
<path fill="none" stroke="black" d="M364.05,-46.7867C395.532,-90.117 462.754,-182.64 494.165,-225.874"/>
<text text-anchor="middle" x="421.108" y="-140.131" font-family="Times,serif" font-size="14.00">40</text>
</g>
<!-- tom8ab -->
<g id="node3" class="node"><title>tom8ab</title>
<polygon fill="none" stroke="black" points="4,-365.422 4,-411.422 160,-411.422 160,-365.422 4,-365.422"/>
<text text-anchor="middle" x="33.5" y="-384.722" font-family="Times,serif" font-size="14.00">tom8ab</text>
<polyline fill="none" stroke="black" points="63,-365.422 63,-411.422 "/>
<text text-anchor="middle" x="89" y="-396.222" font-family="Times,serif" font-size="14.00">ADD</text>
<polyline fill="none" stroke="black" points="63,-388.422 115,-388.422 "/>
<text text-anchor="middle" x="89" y="-373.222" font-family="Times,serif" font-size="14.00">10927</text>
<polyline fill="none" stroke="black" points="115,-365.422 115,-411.422 "/>
<text text-anchor="middle" x="137.5" y="-396.222" font-family="Times,serif" font-size="14.00">DEL</text>
<polyline fill="none" stroke="black" points="115,-388.422 160,-388.422 "/>
<text text-anchor="middle" x="137.5" y="-373.222" font-family="Times,serif" font-size="14.00">1067</text>
</g>
<!-- Tomasz Janiszewski&#45;&#45;tom8ab -->
<g id="edge3" class="edge"><title>Tomasz Janiszewski&#45;&#45;tom8ab</title>
<path fill="none" stroke="black" stroke-dasharray="5,2" d="M330.345,-46.6044C282.65,-112.251 146.699,-299.372 98.8837,-365.184"/>
<text text-anchor="middle" x="207.114" y="-209.694" font-family="Times,serif" font-size="14.00">25</text>
</g>
<!-- Rafal Wyka -->
<g id="node4" class="node"><title>Rafal Wyka</title>
<polygon fill="none" stroke="black" points="259.632,-451.569 259.632,-497.569 434.632,-497.569 434.632,-451.569 259.632,-451.569"/>
<text text-anchor="middle" x="301.632" y="-470.869" font-family="Times,serif" font-size="14.00">Rafal Wyka</text>
<polyline fill="none" stroke="black" points="343.632,-451.569 343.632,-497.569 "/>
<text text-anchor="middle" x="367.132" y="-482.369" font-family="Times,serif" font-size="14.00">ADD</text>
<polyline fill="none" stroke="black" points="343.632,-474.569 390.632,-474.569 "/>
<text text-anchor="middle" x="367.132" y="-459.369" font-family="Times,serif" font-size="14.00">1800</text>
<polyline fill="none" stroke="black" points="390.632,-451.569 390.632,-497.569 "/>
<text text-anchor="middle" x="412.632" y="-482.369" font-family="Times,serif" font-size="14.00">DEL</text>
<polyline fill="none" stroke="black" points="390.632,-474.569 434.632,-474.569 "/>
<text text-anchor="middle" x="412.632" y="-459.369" font-family="Times,serif" font-size="14.00">505</text>
</g>
<!-- Tomasz Janiszewski&#45;&#45;Rafal Wyka -->
<g id="edge1" class="edge"><title>Tomasz Janiszewski&#45;&#45;Rafal Wyka</title>
<path fill="none" stroke="black" d="M347.132,-46.8016C347.132,-124.465 347.132,-373.949 347.132,-451.406"/>
<text text-anchor="middle" x="339.632" y="-252.904" font-family="Times,serif" font-size="14.00">26</text>
</g>
<!-- bednarzm -->
<g id="node5" class="node"><title>bednarzm</title>
<polygon fill="none" stroke="black" points="-2.84217e-14,-86.6465 -2.84217e-14,-132.646 164,-132.646 164,-86.6465 -2.84217e-14,-86.6465"/>
<text text-anchor="middle" x="36.5" y="-105.946" font-family="Times,serif" font-size="14.00">bednarzm</text>
<polyline fill="none" stroke="black" points="73,-86.6465 73,-132.646 "/>
<text text-anchor="middle" x="96.5" y="-117.446" font-family="Times,serif" font-size="14.00">ADD</text>
<polyline fill="none" stroke="black" points="73,-109.646 120,-109.646 "/>
<text text-anchor="middle" x="96.5" y="-94.4465" font-family="Times,serif" font-size="14.00">2061</text>
<polyline fill="none" stroke="black" points="120,-86.6465 120,-132.646 "/>
<text text-anchor="middle" x="142" y="-117.446" font-family="Times,serif" font-size="14.00">DEL</text>
<polyline fill="none" stroke="black" points="120,-109.646 164,-109.646 "/>
<text text-anchor="middle" x="142" y="-94.4465" font-family="Times,serif" font-size="14.00">1022</text>
</g>
<!-- Tomasz Janiszewski&#45;&#45;bednarzm -->
<g id="edge4" class="edge"><title>Tomasz Janiszewski&#45;&#45;bednarzm</title>
<path fill="none" stroke="black" d="M276.081,-46.5857C238.041,-58.9458 191.317,-74.1273 153.247,-86.4971"/>
<text text-anchor="middle" x="206.664" y="-70.3414" font-family="Times,serif" font-size="14.00">43</text>
</g>
<!-- Jakub Dutkowski&#45;&#45;tom8ab -->
<g id="edge6" class="edge"><title>Jakub Dutkowski&#45;&#45;tom8ab</title>
<path fill="none" stroke="black" stroke-dasharray="1,5" d="M440.153,-272.051C360.667,-297.878 232.473,-339.531 152.945,-365.371"/>
<text text-anchor="middle" x="292.049" y="-322.511" font-family="Times,serif" font-size="14.00">4</text>
</g>
<!-- Jakub Dutkowski&#45;&#45;Rafal Wyka -->
<g id="edge5" class="edge"><title>Jakub Dutkowski&#45;&#45;Rafal Wyka</title>
<path fill="none" stroke="black" d="M494.073,-272.321C462.592,-315.651 395.37,-408.175 363.958,-451.409"/>
<text text-anchor="middle" x="421.016" y="-365.665" font-family="Times,serif" font-size="14.00">41</text>
</g>
<!-- Jakub Dutkowski&#45;&#45;bednarzm -->
<g id="edge7" class="edge"><title>Jakub Dutkowski&#45;&#45;bednarzm</title>
<path fill="none" stroke="black" d="M440.153,-226.017C360.667,-200.191 232.473,-158.538 152.945,-132.698"/>
<text text-anchor="middle" x="289.549" y="-183.158" font-family="Times,serif" font-size="14.00">33</text>
</g>
<!-- tom8ab&#45;&#45;Rafal Wyka -->
<g id="edge8" class="edge"><title>tom8ab&#45;&#45;Rafal Wyka</title>
<path fill="none" stroke="black" stroke-dasharray="1,5" d="M153.05,-411.508C191.091,-423.868 237.815,-439.05 275.885,-451.419"/>
<text text-anchor="middle" x="210.968" y="-435.264" font-family="Times,serif" font-size="14.00">3</text>
</g>
<!-- tom8ab&#45;&#45;bednarzm -->
<g id="edge9" class="edge"><title>tom8ab&#45;&#45;bednarzm</title>
<path fill="none" stroke="black" stroke-dasharray="1,5" d="M82,-365.133C82,-312.527 82,-185.029 82,-132.673"/>
<text text-anchor="middle" x="78.5" y="-252.703" font-family="Times,serif" font-size="14.00">1</text>
</g>
<!-- Rafal Wyka&#45;&#45;bednarzm -->
<g id="edge10" class="edge"><title>Rafal Wyka&#45;&#45;bednarzm</title>
<path fill="none" stroke="black" stroke-dasharray="5,2" d="M330.345,-451.464C282.65,-385.818 146.699,-198.697 98.8837,-132.885"/>
<text text-anchor="middle" x="207.614" y="-295.975" font-family="Times,serif" font-size="14.00">22</text>
</g>
</g>
</svg>
