<?xml version="1.0" encoding="UTF-8" standalone="no"?>
<!DOCTYPE svg PUBLIC "-//W3C//DTD SVG 1.1//EN"
 "http://www.w3.org/Graphics/SVG/1.1/DTD/svg11.dtd">
<!-- Generated by graphviz version 2.38.0 (20140413.2041)
 -->
<!-- Title: G Pages: 1 -->
<svg width="967pt" height="814pt"
 viewBox="0.00 0.00 967.35 813.85" xmlns="http://www.w3.org/2000/svg" xmlns:xlink="http://www.w3.org/1999/xlink">
<g id="graph0" class="graph" transform="scale(1 1) rotate(0) translate(4 809.851)">
<title>G</title>
<polygon fill="white" stroke="none" points="-4,4 -4,-809.851 963.351,-809.851 963.351,4 -4,4"/>
<!-- tom8ab -->
<g id="node1" class="node"><title>tom8ab</title>
<polygon fill="none" stroke="black" points="120.131,-648.22 120.131,-694.22 277.131,-694.22 277.131,-648.22 120.131,-648.22"/>
<text text-anchor="middle" x="149.631" y="-667.52" font-family="Times,serif" font-size="14.00">tom8ab</text>
<polyline fill="none" stroke="black" points="179.131,-648.22 179.131,-694.22 "/>
<text text-anchor="middle" x="205.631" y="-679.02" font-family="Times,serif" font-size="14.00">ADD</text>
<polyline fill="none" stroke="black" points="179.131,-671.22 232.131,-671.22 "/>
<text text-anchor="middle" x="205.631" y="-656.02" font-family="Times,serif" font-size="14.00">10651</text>
<polyline fill="none" stroke="black" points="232.131,-648.22 232.131,-694.22 "/>
<text text-anchor="middle" x="254.631" y="-679.02" font-family="Times,serif" font-size="14.00">DEL</text>
<polyline fill="none" stroke="black" points="232.131,-671.22 277.131,-671.22 "/>
<text text-anchor="middle" x="254.631" y="-656.02" font-family="Times,serif" font-size="14.00">1148</text>
</g>
<!-- Tomasz Janiszewski -->
<g id="node2" class="node"><title>Tomasz Janiszewski</title>
<polygon fill="none" stroke="black" points="733.351,-379.925 733.351,-425.925 959.351,-425.925 959.351,-379.925 733.351,-379.925"/>
<text text-anchor="middle" x="800.351" y="-399.225" font-family="Times,serif" font-size="14.00">Tomasz Janiszewski</text>
<polyline fill="none" stroke="black" points="867.351,-379.925 867.351,-425.925 "/>
<text text-anchor="middle" x="890.851" y="-410.725" font-family="Times,serif" font-size="14.00">ADD</text>
<polyline fill="none" stroke="black" points="867.351,-402.925 914.351,-402.925 "/>
<text text-anchor="middle" x="890.851" y="-387.725" font-family="Times,serif" font-size="14.00">5094</text>
<polyline fill="none" stroke="black" points="914.351,-379.925 914.351,-425.925 "/>
<text text-anchor="middle" x="936.851" y="-410.725" font-family="Times,serif" font-size="14.00">DEL</text>
<polyline fill="none" stroke="black" points="914.351,-402.925 959.351,-402.925 "/>
<text text-anchor="middle" x="936.851" y="-387.725" font-family="Times,serif" font-size="14.00">5267</text>
</g>
<!-- tom8ab&#45;&#45;Tomasz Janiszewski -->
<g id="edge1" class="edge"><title>tom8ab&#45;&#45;Tomasz Janiszewski</title>
<path fill="none" stroke="black" stroke-dasharray="5,2" d="M254.416,-648.113C376.854,-597.397 667.945,-476.823 790.47,-426.072"/>
<text text-anchor="middle" x="514.943" y="-540.892" font-family="Times,serif" font-size="14.00">25</text>
</g>
<!-- bednarzm -->
<g id="node3" class="node"><title>bednarzm</title>
<polygon fill="none" stroke="black" points="116.631,-111.631 116.631,-157.631 280.631,-157.631 280.631,-111.631 116.631,-111.631"/>
<text text-anchor="middle" x="153.131" y="-130.931" font-family="Times,serif" font-size="14.00">bednarzm</text>
<polyline fill="none" stroke="black" points="189.631,-111.631 189.631,-157.631 "/>
<text text-anchor="middle" x="213.131" y="-142.431" font-family="Times,serif" font-size="14.00">ADD</text>
<polyline fill="none" stroke="black" points="189.631,-134.631 236.631,-134.631 "/>
<text text-anchor="middle" x="213.131" y="-119.431" font-family="Times,serif" font-size="14.00">2061</text>
<polyline fill="none" stroke="black" points="236.631,-111.631 236.631,-157.631 "/>
<text text-anchor="middle" x="258.631" y="-142.431" font-family="Times,serif" font-size="14.00">DEL</text>
<polyline fill="none" stroke="black" points="236.631,-134.631 280.631,-134.631 "/>
<text text-anchor="middle" x="258.631" y="-119.431" font-family="Times,serif" font-size="14.00">1022</text>
</g>
<!-- tom8ab&#45;&#45;bednarzm -->
<g id="edge2" class="edge"><title>tom8ab&#45;&#45;bednarzm</title>
<path fill="none" stroke="black" stroke-dasharray="1,5" d="M198.631,-648.163C198.631,-560.201 198.631,-246.233 198.631,-157.903"/>
<text text-anchor="middle" x="195.131" y="-406.833" font-family="Times,serif" font-size="14.00">1</text>
</g>
<!-- Rafal Wyka -->
<g id="node7" class="node"><title>Rafal Wyka</title>
<polygon fill="none" stroke="black" points="0,-379.925 0,-425.925 175,-425.925 175,-379.925 0,-379.925"/>
<text text-anchor="middle" x="42" y="-399.225" font-family="Times,serif" font-size="14.00">Rafal Wyka</text>
<polyline fill="none" stroke="black" points="84,-379.925 84,-425.925 "/>
<text text-anchor="middle" x="107.5" y="-410.725" font-family="Times,serif" font-size="14.00">ADD</text>
<polyline fill="none" stroke="black" points="84,-402.925 131,-402.925 "/>
<text text-anchor="middle" x="107.5" y="-387.725" font-family="Times,serif" font-size="14.00">1289</text>
<polyline fill="none" stroke="black" points="131,-379.925 131,-425.925 "/>
<text text-anchor="middle" x="153" y="-410.725" font-family="Times,serif" font-size="14.00">DEL</text>
<polyline fill="none" stroke="black" points="131,-402.925 175,-402.925 "/>
<text text-anchor="middle" x="153" y="-387.725" font-family="Times,serif" font-size="14.00">1</text>
</g>
<!-- tom8ab&#45;&#45;Rafal Wyka -->
<g id="edge3" class="edge"><title>tom8ab&#45;&#45;Rafal Wyka</title>
<path fill="none" stroke="black" stroke-dasharray="1,5" d="M188.963,-647.88C167.893,-597.012 118.044,-476.665 97.0663,-426.02"/>
<text text-anchor="middle" x="139.515" y="-540.75" font-family="Times,serif" font-size="14.00">2</text>
</g>
<!-- Jakub Dutkowski -->
<g id="node8" class="node"><title>Jakub Dutkowski</title>
<polygon fill="none" stroke="black" points="363.925,-759.351 363.925,-805.351 569.925,-805.351 569.925,-759.351 363.925,-759.351"/>
<text text-anchor="middle" x="421.425" y="-778.651" font-family="Times,serif" font-size="14.00">Jakub Dutkowski</text>
<polyline fill="none" stroke="black" points="478.925,-759.351 478.925,-805.351 "/>
<text text-anchor="middle" x="502.425" y="-790.151" font-family="Times,serif" font-size="14.00">ADD</text>
<polyline fill="none" stroke="black" points="478.925,-782.351 525.925,-782.351 "/>
<text text-anchor="middle" x="502.425" y="-767.151" font-family="Times,serif" font-size="14.00">410</text>
<polyline fill="none" stroke="black" points="525.925,-759.351 525.925,-805.351 "/>
<text text-anchor="middle" x="547.925" y="-790.151" font-family="Times,serif" font-size="14.00">DEL</text>
<polyline fill="none" stroke="black" points="525.925,-782.351 569.925,-782.351 "/>
<text text-anchor="middle" x="547.925" y="-767.151" font-family="Times,serif" font-size="14.00">2136</text>
</g>
<!-- tom8ab&#45;&#45;Jakub Dutkowski -->
<g id="edge4" class="edge"><title>tom8ab&#45;&#45;Jakub Dutkowski</title>
<path fill="none" stroke="black" stroke-dasharray="1,5" d="M254.222,-694.246C300.114,-713.255 364.946,-740.109 410.945,-759.163"/>
<text text-anchor="middle" x="328.083" y="-730.505" font-family="Times,serif" font-size="14.00">4</text>
</g>
<!-- Tomasz Janiszewski&#45;&#45;bednarzm -->
<g id="edge5" class="edge"><title>Tomasz Janiszewski&#45;&#45;bednarzm</title>
<path fill="none" stroke="black" d="M790.566,-379.819C668.128,-329.103 377.037,-208.529 254.511,-157.778"/>
<text text-anchor="middle" x="514.539" y="-272.598" font-family="Times,serif" font-size="14.00">43</text>
</g>
<!-- janisz -->
<g id="node4" class="node"><title>janisz</title>
<polygon fill="none" stroke="black" points="664.72,-648.22 664.72,-694.22 805.72,-694.22 805.72,-648.22 664.72,-648.22"/>
<text text-anchor="middle" x="689.72" y="-667.52" font-family="Times,serif" font-size="14.00">janisz</text>
<polyline fill="none" stroke="black" points="714.72,-648.22 714.72,-694.22 "/>
<text text-anchor="middle" x="738.22" y="-679.02" font-family="Times,serif" font-size="14.00">ADD</text>
<polyline fill="none" stroke="black" points="714.72,-671.22 761.72,-671.22 "/>
<text text-anchor="middle" x="738.22" y="-656.02" font-family="Times,serif" font-size="14.00">360</text>
<polyline fill="none" stroke="black" points="761.72,-648.22 761.72,-694.22 "/>
<text text-anchor="middle" x="783.72" y="-679.02" font-family="Times,serif" font-size="14.00">DEL</text>
<polyline fill="none" stroke="black" points="761.72,-671.22 805.72,-671.22 "/>
<text text-anchor="middle" x="783.72" y="-656.02" font-family="Times,serif" font-size="14.00">60</text>
</g>
<!-- Tomasz Janiszewski&#45;&#45;janisz -->
<g id="edge6" class="edge"><title>Tomasz Janiszewski&#45;&#45;janisz</title>
<path fill="none" stroke="black" stroke-dasharray="1,5" d="M836.683,-426.265C815.613,-477.133 765.763,-597.48 744.786,-648.125"/>
<text text-anchor="middle" x="787.234" y="-540.995" font-family="Times,serif" font-size="14.00">8</text>
</g>
<!-- Tomek Janiszewski -->
<g id="node5" class="node"><title>Tomek Janiszewski</title>
<polygon fill="none" stroke="black" points="624.72,-111.631 624.72,-157.631 845.72,-157.631 845.72,-111.631 624.72,-111.631"/>
<text text-anchor="middle" x="689.72" y="-130.931" font-family="Times,serif" font-size="14.00">Tomek Janiszewski</text>
<polyline fill="none" stroke="black" points="754.72,-111.631 754.72,-157.631 "/>
<text text-anchor="middle" x="778.22" y="-142.431" font-family="Times,serif" font-size="14.00">ADD</text>
<polyline fill="none" stroke="black" points="754.72,-134.631 801.72,-134.631 "/>
<text text-anchor="middle" x="778.22" y="-119.431" font-family="Times,serif" font-size="14.00">33</text>
<polyline fill="none" stroke="black" points="801.72,-111.631 801.72,-157.631 "/>
<text text-anchor="middle" x="823.72" y="-142.431" font-family="Times,serif" font-size="14.00">DEL</text>
<polyline fill="none" stroke="black" points="801.72,-134.631 845.72,-134.631 "/>
<text text-anchor="middle" x="823.72" y="-119.431" font-family="Times,serif" font-size="14.00">8</text>
</g>
<!-- Tomasz Janiszewski&#45;&#45;Tomek Janiszewski -->
<g id="edge7" class="edge"><title>Tomasz Janiszewski&#45;&#45;Tomek Janiszewski</title>
<path fill="none" stroke="black" stroke-dasharray="1,5" d="M836.683,-379.585C815.613,-328.717 765.763,-208.37 744.786,-157.726"/>
<text text-anchor="middle" x="786.234" y="-272.456" font-family="Times,serif" font-size="14.00">4</text>
</g>
<!-- wykasz@gmail.com -->
<g id="node6" class="node"><title>wykasz@gmail.com</title>
<polygon fill="none" stroke="black" points="354.925,-0.5 354.925,-46.5 578.925,-46.5 578.925,-0.5 354.925,-0.5"/>
<text text-anchor="middle" x="421.425" y="-19.8" font-family="Times,serif" font-size="14.00">wykasz@gmail.com</text>
<polyline fill="none" stroke="black" points="487.925,-0.5 487.925,-46.5 "/>
<text text-anchor="middle" x="511.425" y="-31.3" font-family="Times,serif" font-size="14.00">ADD</text>
<polyline fill="none" stroke="black" points="487.925,-23.5 534.925,-23.5 "/>
<text text-anchor="middle" x="511.425" y="-8.3" font-family="Times,serif" font-size="14.00">512</text>
<polyline fill="none" stroke="black" points="534.925,-0.5 534.925,-46.5 "/>
<text text-anchor="middle" x="556.925" y="-31.3" font-family="Times,serif" font-size="14.00">DEL</text>
<polyline fill="none" stroke="black" points="534.925,-23.5 578.925,-23.5 "/>
<text text-anchor="middle" x="556.925" y="-8.3" font-family="Times,serif" font-size="14.00">505</text>
</g>
<!-- Tomasz Janiszewski&#45;&#45;wykasz@gmail.com -->
<g id="edge8" class="edge"><title>Tomasz Janiszewski&#45;&#45;wykasz@gmail.com</title>
<path fill="none" stroke="black" stroke-dasharray="5,2" d="M823.187,-379.762C755.45,-312.024 558.233,-114.807 490.268,-46.8425"/>
<text text-anchor="middle" x="648.728" y="-217.102" font-family="Times,serif" font-size="14.00">24</text>
</g>
<!-- Tomasz Janiszewski&#45;&#45;Rafal Wyka -->
<g id="edge9" class="edge"><title>Tomasz Janiszewski&#45;&#45;Rafal Wyka</title>
<path fill="none" stroke="black" stroke-dasharray="5,2" d="M733.153,-402.925C580.796,-402.925 312.992,-402.925 175.064,-402.925"/>
<text text-anchor="middle" x="447.108" y="-406.725" font-family="Times,serif" font-size="14.00">22</text>
</g>
<!-- Tomasz Janiszewski&#45;&#45;Jakub Dutkowski -->
<g id="edge10" class="edge"><title>Tomasz Janiszewski&#45;&#45;Jakub Dutkowski</title>
<path fill="none" stroke="black" d="M823.187,-426.089C755.45,-493.826 558.233,-691.043 490.268,-759.008"/>
<text text-anchor="middle" x="648.728" y="-596.349" font-family="Times,serif" font-size="14.00">40</text>
</g>
<!-- bednarzm&#45;&#45;Tomek Janiszewski -->
<g id="edge11" class="edge"><title>bednarzm&#45;&#45;Tomek Janiszewski</title>
<path fill="none" stroke="black" stroke-dasharray="5,2" d="M280.711,-134.631C372.603,-134.631 522.002,-134.631 624.256,-134.631"/>
<text text-anchor="middle" x="444.984" y="-138.431" font-family="Times,serif" font-size="14.00">15</text>
</g>
<!-- bednarzm&#45;&#45;wykasz@gmail.com -->
<g id="edge12" class="edge"><title>bednarzm&#45;&#45;wykasz@gmail.com</title>
<path fill="none" stroke="black" stroke-dasharray="5,2" d="M254.222,-111.605C300.114,-92.5954 364.946,-65.7414 410.945,-46.6879"/>
<text text-anchor="middle" x="325.083" y="-82.9463" font-family="Times,serif" font-size="14.00">25</text>
</g>
<!-- bednarzm&#45;&#45;Rafal Wyka -->
<g id="edge13" class="edge"><title>bednarzm&#45;&#45;Rafal Wyka</title>
<path fill="none" stroke="black" stroke-dasharray="5,2" d="M188.963,-157.971C167.893,-208.839 118.044,-329.186 97.0663,-379.83"/>
<text text-anchor="middle" x="136.015" y="-272.701" font-family="Times,serif" font-size="14.00">17</text>
</g>
<!-- bednarzm&#45;&#45;Jakub Dutkowski -->
<g id="edge14" class="edge"><title>bednarzm&#45;&#45;Jakub Dutkowski</title>
<path fill="none" stroke="black" d="M208.18,-157.684C249.859,-258.307 415.622,-658.493 457.351,-759.237"/>
<text text-anchor="middle" x="325.766" y="-462.26" font-family="Times,serif" font-size="14.00">33</text>
</g>
<!-- janisz&#45;&#45;Jakub Dutkowski -->
<g id="edge15" class="edge"><title>janisz&#45;&#45;Jakub Dutkowski</title>
<path fill="none" stroke="black" stroke-dasharray="1,5" d="M679.629,-694.246C633.736,-713.255 568.905,-740.109 522.906,-759.163"/>
<text text-anchor="middle" x="597.267" y="-730.505" font-family="Times,serif" font-size="14.00">9</text>
</g>
<!-- Tomek Janiszewski&#45;&#45;wykasz@gmail.com -->
<g id="edge16" class="edge"><title>Tomek Janiszewski&#45;&#45;wykasz@gmail.com</title>
<path fill="none" stroke="black" stroke-dasharray="1,5" d="M679.629,-111.605C633.736,-92.5954 568.905,-65.7414 522.906,-46.6879"/>
<text text-anchor="middle" x="597.267" y="-82.9463" font-family="Times,serif" font-size="14.00">9</text>
</g>
<!-- Tomek Janiszewski&#45;&#45;Jakub Dutkowski -->
<g id="edge17" class="edge"><title>Tomek Janiszewski&#45;&#45;Jakub Dutkowski</title>
<path fill="none" stroke="black" stroke-dasharray="5,2" d="M725.671,-157.684C683.991,-258.307 518.229,-658.493 476.499,-759.237"/>
<text text-anchor="middle" x="593.585" y="-462.26" font-family="Times,serif" font-size="14.00">15</text>
</g>
<!-- wykasz@gmail.com&#45;&#45;Rafal Wyka -->
<g id="edge18" class="edge"><title>wykasz@gmail.com&#45;&#45;Rafal Wyka</title>
<path fill="none" stroke="black" d="M443.762,-46.6636C376.024,-114.401 178.807,-311.618 110.843,-379.583"/>
<text text-anchor="middle" x="269.302" y="-216.923" font-family="Times,serif" font-size="14.00">56</text>
</g>
<!-- wykasz@gmail.com&#45;&#45;Jakub Dutkowski -->
<g id="edge19" class="edge"><title>wykasz@gmail.com&#45;&#45;Jakub Dutkowski</title>
<path fill="none" stroke="black" d="M466.925,-46.6252C466.925,-158.899 466.925,-646.333 466.925,-759.033"/>
<text text-anchor="middle" x="459.425" y="-391.629" font-family="Times,serif" font-size="14.00">51</text>
</g>
<!-- Rafal Wyka&#45;&#45;Jakub Dutkowski -->
<g id="edge20" class="edge"><title>Rafal Wyka&#45;&#45;Jakub Dutkowski</title>
<path fill="none" stroke="black" d="M110.664,-426.089C178.401,-493.826 375.618,-691.043 443.583,-759.008"/>
<text text-anchor="middle" x="270.123" y="-596.349" font-family="Times,serif" font-size="14.00">32</text>
</g>
</g>
</svg>
