<?xml version="1.0" encoding="UTF-8" standalone="no"?>
<!DOCTYPE svg PUBLIC "-//W3C//DTD SVG 1.1//EN"
 "http://www.w3.org/Graphics/SVG/1.1/DTD/svg11.dtd">
<!-- Generated by graphviz version 2.40.1 (20161225.0304)
 -->
<!-- Title: G Pages: 1 -->
<svg width="706pt" height="550pt"
 viewBox="0.00 0.00 706.35 550.02" xmlns="http://www.w3.org/2000/svg" xmlns:xlink="http://www.w3.org/1999/xlink">
<g id="graph0" class="graph" transform="scale(1 1) rotate(0) translate(4 546.025)">
<title>G</title>
<polygon fill="#ffffff" stroke="transparent" points="-4,4 -4,-546.025 702.3493,-546.025 702.3493,4 -4,4"/>
<!-- STAGING -->
<g id="node1" class="node">
<title>STAGING</title>
<ellipse fill="none" stroke="#c0c0c0" cx="53.4044" cy="-246.85" rx="53.309" ry="53.309"/>
<text text-anchor="middle" x="53.4044" y="-242.65" font-family="Times,serif" font-size="14.00" fill="#000000">STAGING</text>
</g>
<!-- STARTING -->
<g id="node2" class="node">
<title>STARTING</title>
<ellipse fill="none" stroke="#000000" stroke-dasharray="5,2" cx="201.8356" cy="-370.85" rx="58.5463" ry="58.5463"/>
<text text-anchor="middle" x="201.8356" y="-366.65" font-family="Times,serif" font-size="14.00" fill="#000000">STARTING</text>
</g>
<!-- STAGING&#45;&gt;STARTING -->
<g id="edge1" class="edge">
<title>STAGING&#45;&gt;STARTING</title>
<path fill="none" stroke="#000000" d="M94.7508,-281.3909C111.4136,-295.3111 130.8467,-311.5456 148.5495,-326.3346"/>
<polygon fill="#000000" stroke="#000000" points="146.627,-329.2891 156.5454,-333.0143 151.1149,-323.917 146.627,-329.2891"/>
</g>
<!-- ERROR -->
<g id="node9" class="node">
<title>ERROR</title>
<ellipse fill="none" stroke="#c0c0c0" cx="201.8356" cy="-246.85" rx="43.4376" ry="43.4376"/>
<ellipse fill="none" stroke="#c0c0c0" cx="201.8356" cy="-246.85" rx="47.457" ry="47.457"/>
<text text-anchor="middle" x="201.8356" y="-242.65" font-family="Times,serif" font-size="14.00" fill="#000000">ERROR</text>
</g>
<!-- STAGING&#45;&gt;ERROR -->
<g id="edge7" class="edge">
<title>STAGING&#45;&gt;ERROR</title>
<path fill="none" stroke="#000000" d="M106.9915,-246.85C119.0582,-246.85 131.9152,-246.85 144.142,-246.85"/>
<polygon fill="#000000" stroke="#000000" points="144.2331,-250.3501 154.233,-246.85 144.233,-243.3501 144.2331,-250.3501"/>
</g>
<!-- DROPPED -->
<g id="node10" class="node">
<title>DROPPED</title>
<ellipse fill="none" stroke="#c0c0c0" cx="201.8356" cy="-122.85" rx="55.0518" ry="55.0518"/>
<ellipse fill="none" stroke="#c0c0c0" cx="201.8356" cy="-122.85" rx="59.0536" ry="59.0536"/>
<text text-anchor="middle" x="201.8356" y="-118.65" font-family="Times,serif" font-size="14.00" fill="#000000">DROPPED</text>
</g>
<!-- STAGING&#45;&gt;DROPPED -->
<g id="edge9" class="edge">
<title>STAGING&#45;&gt;DROPPED</title>
<path fill="none" stroke="#000000" d="M94.7508,-212.3091C111.3393,-198.451 130.6733,-182.2993 148.3124,-167.5635"/>
<polygon fill="#000000" stroke="#000000" points="150.8511,-170.0033 156.2816,-160.906 146.3632,-164.6312 150.8511,-170.0033"/>
</g>
<!-- RUNNING -->
<g id="node3" class="node">
<title>RUNNING</title>
<ellipse fill="none" stroke="#000000" stroke-dasharray="5,2" cx="352.4107" cy="-370.85" rx="55.5966" ry="55.5966"/>
<text text-anchor="middle" x="352.4107" y="-366.65" font-family="Times,serif" font-size="14.00" fill="#000000">RUNNING</text>
</g>
<!-- STARTING&#45;&gt;RUNNING -->
<g id="edge2" class="edge">
<title>STARTING&#45;&gt;RUNNING</title>
<path fill="none" stroke="#000000" d="M260.9147,-370.85C269.2324,-370.85 277.8272,-370.85 286.2664,-370.85"/>
<polygon fill="#000000" stroke="#000000" points="286.4541,-374.3501 296.4541,-370.85 286.4541,-367.3501 286.4541,-374.3501"/>
</g>
<!-- RUNNING&#45;&gt;RUNNING -->
<g id="edge4" class="edge">
<title>RUNNING&#45;&gt;RUNNING</title>
<path fill="none" stroke="#000000" d="M326.2905,-420.0011C327.4344,-433.8034 336.1411,-444.3982 352.4107,-444.3982 364.4857,-444.3982 372.3949,-438.5621 376.1381,-429.9101"/>
<polygon fill="#000000" stroke="#000000" points="379.5857,-430.5433 378.5309,-420.0011 372.7813,-428.9001 379.5857,-430.5433"/>
</g>
<!-- KILLING -->
<g id="node4" class="node">
<title>KILLING</title>
<ellipse fill="none" stroke="#000000" stroke-dasharray="5,2" cx="494.1379" cy="-331.85" rx="50.3586" ry="50.3586"/>
<text text-anchor="middle" x="494.1379" y="-327.65" font-family="Times,serif" font-size="14.00" fill="#000000">KILLING</text>
</g>
<!-- RUNNING&#45;&gt;KILLING -->
<g id="edge3" class="edge">
<title>RUNNING&#45;&gt;KILLING</title>
<path fill="none" stroke="#000000" d="M405.9917,-356.1058C415.751,-353.4202 425.9761,-350.6065 435.8633,-347.8858"/>
<polygon fill="#000000" stroke="#000000" points="436.8952,-351.232 445.6082,-345.2042 435.0379,-344.4829 436.8952,-351.232"/>
</g>
<!-- LOST -->
<g id="node5" class="node">
<title>LOST</title>
<ellipse fill="none" stroke="#c0c0c0" cx="639.3331" cy="-506.85" rx="35.3509" ry="35.3509"/>
<text text-anchor="middle" x="639.3331" y="-502.65" font-family="Times,serif" font-size="14.00" fill="#000000">LOST</text>
</g>
<!-- KILLING&#45;&gt;LOST -->
<g id="edge8" class="edge">
<title>KILLING&#45;&gt;LOST</title>
<path fill="none" stroke="#000000" d="M518.0351,-376.1832C533.6908,-402.9505 555.7584,-436.8039 580.3169,-462.85 586.4925,-469.3996 593.7376,-475.6761 600.996,-481.3339"/>
<polygon fill="#000000" stroke="#000000" points="599.3571,-484.479 609.4598,-487.6707 603.5525,-478.8755 599.3571,-484.479"/>
</g>
<!-- FINISHED -->
<g id="node6" class="node">
<title>FINISHED</title>
<ellipse fill="none" stroke="#000000" cx="639.3331" cy="-394.85" rx="55.0312" ry="55.0312"/>
<ellipse fill="none" stroke="#000000" cx="639.3331" cy="-394.85" rx="59.0323" ry="59.0323"/>
<text text-anchor="middle" x="639.3331" y="-390.65" font-family="Times,serif" font-size="14.00" fill="#000000">FINISHED</text>
</g>
<!-- KILLING&#45;&gt;FINISHED -->
<g id="edge11" class="edge">
<title>KILLING&#45;&gt;FINISHED</title>
<path fill="none" stroke="#000000" d="M540.4778,-351.9568C551.676,-356.8157 563.8375,-362.0925 575.6769,-367.2296"/>
<polygon fill="#000000" stroke="#000000" points="574.5114,-370.5392 585.0783,-371.3089 577.2978,-364.1176 574.5114,-370.5392"/>
</g>
<!-- FAILED -->
<g id="node7" class="node">
<title>FAILED</title>
<ellipse fill="none" stroke="#000000" cx="639.3331" cy="-268.85" rx="45.2339" ry="45.2339"/>
<ellipse fill="none" stroke="#000000" cx="639.3331" cy="-268.85" rx="49.2227" ry="49.2227"/>
<text text-anchor="middle" x="639.3331" y="-264.65" font-family="Times,serif" font-size="14.00" fill="#000000">FAILED</text>
</g>
<!-- KILLING&#45;&gt;FAILED -->
<g id="edge5" class="edge">
<title>KILLING&#45;&gt;FAILED</title>
<path fill="none" stroke="#000000" d="M540.4778,-311.7432C554.5023,-305.658 570.0378,-298.9171 584.5591,-292.6164"/>
<polygon fill="#000000" stroke="#000000" points="586.1486,-295.742 593.9291,-288.5507 583.3623,-289.3204 586.1486,-295.742"/>
</g>
<!-- KILLED -->
<g id="node8" class="node">
<title>KILLED</title>
<ellipse fill="none" stroke="#000000" cx="639.3331" cy="-151.85" rx="45.7934" ry="45.7934"/>
<ellipse fill="none" stroke="#000000" cx="639.3331" cy="-151.85" rx="49.7848" ry="49.7848"/>
<text text-anchor="middle" x="639.3331" y="-147.65" font-family="Times,serif" font-size="14.00" fill="#000000">KILLED</text>
</g>
<!-- KILLING&#45;&gt;KILLED -->
<g id="edge6" class="edge">
<title>KILLING&#45;&gt;KILLED</title>
<path fill="none" stroke="#000000" d="M521.6166,-289.6888C537.7864,-265.8293 559.1611,-235.8548 580.3169,-210.85 585.1421,-205.147 590.4176,-199.3479 595.7665,-193.7226"/>
<polygon fill="#000000" stroke="#000000" points="598.6251,-195.8022 603.0704,-186.185 593.598,-190.931 598.6251,-195.8022"/>
</g>
<!-- GONE -->
<g id="node11" class="node">
<title>GONE</title>
<ellipse fill="none" stroke="#c0c0c0" cx="639.3331" cy="-41.85" rx="37.7148" ry="37.7148"/>
<ellipse fill="none" stroke="#c0c0c0" cx="639.3331" cy="-41.85" rx="41.7005" ry="41.7005"/>
<text text-anchor="middle" x="639.3331" y="-37.65" font-family="Times,serif" font-size="14.00" fill="#000000">GONE</text>
</g>
<!-- KILLING&#45;&gt;GONE -->
<g id="edge10" class="edge">
<title>KILLING&#45;&gt;GONE</title>
<path fill="none" stroke="#000000" d="M504.0933,-282.6631C516.0859,-231.8049 539.8465,-151.7395 580.3169,-92.85 585.168,-85.7911 591.2245,-79.1071 597.5947,-73.0436"/>
<polygon fill="#000000" stroke="#000000" points="600.0762,-75.5189 605.1634,-66.2253 595.3909,-70.3181 600.0762,-75.5189"/>
</g>
<!-- LOST&#45;&gt;RUNNING -->
<g id="edge12" class="edge">
<title>LOST&#45;&gt;RUNNING</title>
<path fill="none" stroke="#000000" d="M607.3417,-491.6862C560.2196,-469.3505 471.3312,-427.2178 411.9783,-399.0848"/>
<polygon fill="#000000" stroke="#000000" points="413.2525,-395.8155 402.7171,-394.695 410.2543,-402.1409 413.2525,-395.8155"/>
</g>
</g>
</svg>
