<svg xmlns="http://www.w3.org/2000/svg" viewBox="0 0 90.1 32.4" enable-background="new 0 0 90.1 32.4"><g fill="#3f4040"><path d="m15.7 9.4h-4.6v-1c0-1-.2-1.9-.7-2.7-.5-.8-1.4-1.1-2.5-1.1-.6 0-1.1.1-1.5.4-.5.2-.8.5-1 .8-.2.4-.4.9-.5 1.3-.1.5-.1 1-.1 1.5 0 .6 0 1.2.1 1.6 0 .4.2.8.3 1.1.2.4.4.7.8.9.3.2.8.5 1.4.7l3.5 1.4c1 .4 1.8.8 2.5 1.4.6.5 1.1 1.1 1.5 1.8.3.7.6 1.5.7 2.4.1.9.2 1.9.2 3.1 0 1.3-.1 2.6-.4 3.7-.3 1.1-.7 2.1-1.3 3-.6.8-1.4 1.5-2.4 1.9-1 .5-2.3.7-3.7.7-1.1 0-2.1-.2-3.1-.6-1-.4-1.8-.9-2.5-1.6-.7-.7-1.2-1.5-1.6-2.4-.4-.9-.6-1.9-.6-3v-1.7h4.6v1.4c0 .8.2 1.6.7 2.3.5.7 1.3 1 2.5 1 .8 0 1.4-.1 1.8-.3.4-.2.8-.5 1-.9.2-.4.4-.9.4-1.5.1-.6.1-1.3.1-2 0-.8 0-1.5-.1-2.1-.1-.5-.2-1-.4-1.3-.2-.3-.5-.6-.8-.8-.3-.2-.8-.4-1.4-.7l-3.3-1.3c-2-.8-3.3-1.9-4-3.2-.7-1.3-1-3-1-5 0-1.2.2-2.3.5-3.4.3-1.1.8-2 1.5-2.8.6-.8 1.5-1.4 2.4-1.9.9-.3 2-.5 3.4-.5 1.1 0 2.2.2 3.1.6.9.4 1.7 1 2.4 1.7.7.7 1.2 1.5 1.5 2.3.4.9.5 1.7.5 2.6v2.2z"/><path d="m19.9 2.6h4.6v6.9h2.8v3.5h-2.8v12.6c0 .5.1 1 .2 1.3.1.3.3.5.5.7.2.1.5.2.9.3.4 0 .8 0 1.3 0v4.3h-1.9c-1 0-1.9-.2-2.6-.5-.7-.3-1.3-.7-1.7-1.3-.4-.5-.7-1.1-.9-1.7-.2-.6-.3-1.3-.3-1.9v-13.8h-2.3v-3.6h2.3v-6.8z"/><path d="m38.8 29.8c-.7.8-1.3 1.5-1.9 1.9-.6.4-1.5.7-2.6.7-.5 0-1.1-.1-1.7-.2-.6-.2-1.1-.5-1.6-.9-.5-.4-.9-1-1.2-1.8-.3-.8-.5-1.8-.5-3.1 0-1.3.1-2.4.3-3.4.2-1 .6-1.8 1.1-2.4.6-.6 1.3-1.1 2.2-1.4.9-.3 2.1-.5 3.5-.5.3 0 .7 0 1 0 .3 0 .7.1 1.2.1v-2.4c0-.8-.2-1.4-.5-1.9-.3-.5-.9-.8-1.8-.8-.6 0-1.1.2-1.6.6-.5.4-.8 1-1 1.7h-4.4c.1-2.1.8-3.7 2.1-4.9.6-.6 1.3-1.1 2.1-1.4.8-.3 1.8-.5 2.8-.5 1 0 1.9.1 2.7.4.8.3 1.6.7 2.2 1.3.6.6 1.1 1.3 1.5 2.2.4.9.5 1.9.5 3.1v15.8h-4.6v-2.2zm0-7.4c-.5-.1-.9-.1-1.3-.1-1 0-1.8.2-2.5.7-.7.5-1.1 1.3-1.1 2.5 0 .9.2 1.6.6 2.1.4.5 1 .8 1.7.8.8 0 1.4-.3 1.8-.8.4-.5.6-1.2.6-2.1v-3.1z"/><path d="m47.9 2.6h4.6v6.9h2.8v3.5h-2.8v12.6c0 .5.1 1 .2 1.3.1.3.3.5.5.7.2.1.5.2.9.3.4 0 .8 0 1.3 0v4.3h-1.9c-1 0-1.9-.2-2.6-.5-.7-.3-1.3-.7-1.7-1.3-.4-.5-.7-1.1-.9-1.7-.2-.6-.3-1.3-.3-1.9v-13.8h-2.3v-3.6h2.3v-6.8z"/><path d="m66.4 15.8c0-.8-.3-1.4-.7-1.7-.5-.4-1-.6-1.6-.6-.7 0-1.3.2-1.7.7-.4.5-.6 1-.6 1.6 0 .4.1.8.3 1.2.2.4.7.8 1.6 1.1l2.7 1.1c1.7.7 2.9 1.6 3.5 2.7.6 1.1 1 2.4 1 3.7 0 1-.2 1.8-.5 2.7-.3.8-.8 1.5-1.4 2.2-.6.6-1.3 1.1-2.1 1.5-.8.4-1.7.5-2.7.5-.9 0-1.7-.1-2.6-.4-.8-.3-1.5-.7-2.1-1.3-.6-.6-1.1-1.3-1.5-2.1-.4-.9-.6-1.8-.6-3h4.3c.1.6.3 1.2.6 1.7.3.5.9.8 1.8.8.7 0 1.2-.2 1.8-.6.5-.4.8-1 .8-1.8 0-.6-.2-1.2-.5-1.6-.3-.4-.9-.8-1.8-1.2l-2.2-.8c-1.4-.5-2.6-1.3-3.4-2.4-.8-1.1-1.2-2.4-1.2-3.9 0-1 .2-1.8.5-2.7.4-.8.8-1.5 1.5-2.1.6-.6 1.3-1 2.1-1.4.8-.3 1.7-.5 2.6-.5.9 0 1.8.2 2.6.5.8.3 1.5.8 2 1.4.6.6 1 1.3 1.3 2.1.3.8.5 1.7.5 2.6h-4.3"/></g><path d="m75.3.3h6.7c2.6 0 4.6.7 6 2.2 1.4 1.4 2.1 3.5 2.1 6.1v14.9c0 3-.7 5.2-2.2 6.6-1.4 1.4-3.5 2.1-6.2 2.1h-6.4v-31.9m4.5 27.6h2.2c1.3 0 2.2-.3 2.7-1 .5-.6.8-1.6.8-3v-15.4c0-1.3-.3-2.2-.8-2.9-.5-.7-1.4-1-2.8-1h-2.1v23.3" fill="#f2702c"/></svg>